<svg width="131" height="12" viewBox="0 0 131 12" fill="none" xmlns="http://www.w3.org/2000/svg">
<path d="M0.861506 9V0.272727H3.81037C4.49219 0.272727 5.05185 0.389204 5.48935 0.622159C5.92685 0.852272 6.25071 1.16903 6.46094 1.57244C6.67116 1.97585 6.77628 2.43466 6.77628 2.94886C6.77628 3.46307 6.67116 3.91903 6.46094 4.31676C6.25071 4.71449 5.92827 5.02699 5.49361 5.25426C5.05895 5.47869 4.50355 5.59091 3.82741 5.59091H1.44105V4.63636H3.79332C4.25923 4.63636 4.63423 4.56818 4.91832 4.43182C5.20526 4.29545 5.41264 4.10227 5.54048 3.85227C5.67116 3.59943 5.73651 3.2983 5.73651 2.94886C5.73651 2.59943 5.67116 2.29403 5.54048 2.03267C5.4098 1.77131 5.20099 1.5696 4.91406 1.42756C4.62713 1.28267 4.24787 1.21023 3.77628 1.21023H1.91832V9H0.861506ZM4.96946 5.07955L7.11719 9H5.88992L3.77628 5.07955H4.96946ZM11.0749 9.13636C10.4442 9.13636 9.90021 8.99716 9.44283 8.71875C8.98828 8.4375 8.63743 8.04545 8.39027 7.54261C8.14595 7.03693 8.02379 6.44886 8.02379 5.77841C8.02379 5.10795 8.14595 4.51705 8.39027 4.00568C8.63743 3.49148 8.98118 3.09091 9.42152 2.80398C9.8647 2.5142 10.3817 2.36932 10.9727 2.36932C11.3136 2.36932 11.6502 2.42614 11.9826 2.53977C12.315 2.65341 12.6175 2.83807 12.8903 3.09375C13.163 3.34659 13.3803 3.68182 13.5423 4.09943C13.7042 4.51705 13.7852 5.03125 13.7852 5.64205V6.06818H8.7397V5.19886H12.7624C12.7624 4.82955 12.6886 4.5 12.5408 4.21023C12.396 3.92045 12.1886 3.69176 11.9187 3.52415C11.6516 3.35653 11.3363 3.27273 10.9727 3.27273C10.5721 3.27273 10.2255 3.37216 9.93288 3.57102C9.64311 3.76705 9.4201 4.02273 9.26385 4.33807C9.1076 4.65341 9.02947 4.99148 9.02947 5.35227V5.93182C9.02947 6.42614 9.1147 6.84517 9.28516 7.18892C9.45845 7.52983 9.69851 7.78977 10.0053 7.96875C10.3121 8.14489 10.6687 8.23295 11.0749 8.23295C11.3391 8.23295 11.5778 8.19602 11.7908 8.12216C12.0067 8.04545 12.1928 7.93182 12.3491 7.78125C12.5053 7.62784 12.6261 7.4375 12.7113 7.21023L13.6829 7.48295C13.5806 7.8125 13.4087 8.10227 13.1673 8.35227C12.9258 8.59943 12.6275 8.79261 12.2724 8.93182C11.9173 9.06818 11.5181 9.13636 11.0749 9.13636ZM15.315 9V2.45455H16.2866V3.47727H16.3718C16.5082 3.12784 16.7283 2.85653 17.0323 2.66335C17.3363 2.46733 17.7013 2.36932 18.1275 2.36932C18.5593 2.36932 18.9187 2.46733 19.2056 2.66335C19.4954 2.85653 19.7212 3.12784 19.8832 3.47727H19.9513C20.119 3.1392 20.3704 2.87074 20.7056 2.67188C21.0408 2.47017 21.4428 2.36932 21.9116 2.36932C22.4968 2.36932 22.9755 2.55256 23.3477 2.91903C23.7198 3.28267 23.9059 3.84943 23.9059 4.61932V9H22.9002V4.61932C22.9002 4.13636 22.7681 3.79119 22.5039 3.58381C22.2397 3.37642 21.9286 3.27273 21.5707 3.27273C21.1104 3.27273 20.7539 3.41193 20.5011 3.69034C20.2482 3.96591 20.1218 4.31534 20.1218 4.73864V9H19.0991V4.51705C19.0991 4.14489 18.9783 3.84517 18.7369 3.6179C18.4954 3.38778 18.1843 3.27273 17.8036 3.27273C17.5423 3.27273 17.2979 3.34233 17.0707 3.48153C16.8462 3.62074 16.6644 3.81392 16.5252 4.06108C16.3888 4.3054 16.3207 4.58807 16.3207 4.90909V9H15.315ZM28.4038 9.13636C27.8129 9.13636 27.2944 8.99574 26.8484 8.71449C26.4052 8.43324 26.0586 8.03977 25.8086 7.53409C25.5614 7.02841 25.4379 6.4375 25.4379 5.76136C25.4379 5.07955 25.5614 4.48437 25.8086 3.97585C26.0586 3.46733 26.4052 3.07244 26.8484 2.79119C27.2944 2.50994 27.8129 2.36932 28.4038 2.36932C28.9947 2.36932 29.5117 2.50994 29.9549 2.79119C30.4009 3.07244 30.7475 3.46733 30.9947 3.97585C31.2447 4.48437 31.3697 5.07955 31.3697 5.76136C31.3697 6.4375 31.2447 7.02841 30.9947 7.53409C30.7475 8.03977 30.4009 8.43324 29.9549 8.71449C29.5117 8.99574 28.9947 9.13636 28.4038 9.13636ZM28.4038 8.23295C28.8526 8.23295 29.2219 8.1179 29.5117 7.88778C29.8015 7.65767 30.016 7.35511 30.1552 6.98011C30.2944 6.60511 30.364 6.19886 30.364 5.76136C30.364 5.32386 30.2944 4.91619 30.1552 4.53835C30.016 4.16051 29.8015 3.85511 29.5117 3.62216C29.2219 3.3892 28.8526 3.27273 28.4038 3.27273C27.9549 3.27273 27.5856 3.3892 27.2958 3.62216C27.006 3.85511 26.7915 4.16051 26.6523 4.53835C26.5131 4.91619 26.4435 5.32386 26.4435 5.76136C26.4435 6.19886 26.5131 6.60511 26.6523 6.98011C26.7915 7.35511 27.006 7.65767 27.2958 7.88778C27.5856 8.1179 27.9549 8.23295 28.4038 8.23295ZM38.0227 2.45455L35.6023 9H34.5795L32.1591 2.45455H33.25L35.0568 7.67045H35.125L36.9318 2.45455H38.0227ZM41.8601 9.13636C41.2294 9.13636 40.6854 8.99716 40.228 8.71875C39.7734 8.4375 39.4226 8.04545 39.1754 7.54261C38.9311 7.03693 38.8089 6.44886 38.8089 5.77841C38.8089 5.10795 38.9311 4.51705 39.1754 4.00568C39.4226 3.49148 39.7663 3.09091 40.2067 2.80398C40.6499 2.5142 41.1669 2.36932 41.7578 2.36932C42.0987 2.36932 42.4354 2.42614 42.7678 2.53977C43.1001 2.65341 43.4027 2.83807 43.6754 3.09375C43.9482 3.34659 44.1655 3.68182 44.3274 4.09943C44.4893 4.51705 44.5703 5.03125 44.5703 5.64205V6.06818H39.5249V5.19886H43.5476C43.5476 4.82955 43.4737 4.5 43.326 4.21023C43.1811 3.92045 42.9737 3.69176 42.7038 3.52415C42.4368 3.35653 42.1214 3.27273 41.7578 3.27273C41.3572 3.27273 41.0107 3.37216 40.718 3.57102C40.4283 3.76705 40.2053 4.02273 40.049 4.33807C39.8928 4.65341 39.8146 4.99148 39.8146 5.35227V5.93182C39.8146 6.42614 39.8999 6.84517 40.0703 7.18892C40.2436 7.52983 40.4837 7.78977 40.7905 7.96875C41.0973 8.14489 41.4538 8.23295 41.8601 8.23295C42.1243 8.23295 42.3629 8.19602 42.576 8.12216C42.7919 8.04545 42.978 7.93182 43.1342 7.78125C43.2905 7.62784 43.4112 7.4375 43.4964 7.21023L44.468 7.48295C44.3658 7.8125 44.1939 8.10227 43.9524 8.35227C43.7109 8.59943 43.4126 8.79261 43.0575 8.93182C42.7024 9.06818 42.3033 9.13636 41.8601 9.13636ZM46.1001 9V2.45455H47.0717V3.44318H47.1399C47.2592 3.11932 47.4751 2.85653 47.7876 2.65483C48.1001 2.45312 48.4524 2.35227 48.8445 2.35227C48.9183 2.35227 49.0107 2.35369 49.1214 2.35653C49.2322 2.35937 49.3161 2.36364 49.3729 2.36932V3.39205C49.3388 3.38352 49.2607 3.37074 49.1385 3.35369C49.0192 3.33381 48.8928 3.32386 48.7592 3.32386C48.4411 3.32386 48.157 3.39062 47.907 3.52415C47.6598 3.65483 47.4638 3.83665 47.3189 4.0696C47.1768 4.29972 47.1058 4.5625 47.1058 4.85795V9H46.1001ZM55.8661 9.15341C55.4513 9.15341 55.0749 9.07528 54.7369 8.91903C54.3988 8.75994 54.1303 8.53125 53.9315 8.23295C53.7326 7.93182 53.6332 7.56818 53.6332 7.14205C53.6332 6.76705 53.707 6.46307 53.8548 6.23011C54.0025 5.99432 54.1999 5.80966 54.4471 5.67614C54.6942 5.54261 54.967 5.44318 55.2653 5.37784C55.5664 5.30966 55.869 5.25568 56.1729 5.21591C56.5707 5.16477 56.8931 5.12642 57.1403 5.10085C57.3903 5.07244 57.5721 5.02557 57.6857 4.96023C57.8022 4.89489 57.8604 4.78125 57.8604 4.61932V4.58523C57.8604 4.16477 57.7454 3.83807 57.5153 3.60511C57.288 3.37216 56.9428 3.25568 56.4798 3.25568C55.9996 3.25568 55.6232 3.3608 55.3505 3.57102C55.0778 3.78125 54.886 4.00568 54.7752 4.24432L53.8207 3.90341C53.9911 3.50568 54.2184 3.19602 54.5025 2.97443C54.7894 2.75 55.1019 2.59375 55.44 2.50568C55.7809 2.41477 56.1161 2.36932 56.4457 2.36932C56.6559 2.36932 56.8974 2.39489 57.1701 2.44602C57.4457 2.49432 57.7113 2.59517 57.967 2.74858C58.2255 2.90199 58.44 3.13352 58.6104 3.44318C58.7809 3.75284 58.8661 4.16761 58.8661 4.6875V9H57.8604V8.11364H57.8093C57.7411 8.25568 57.6275 8.40767 57.4684 8.5696C57.3093 8.73153 57.0977 8.86932 56.8335 8.98295C56.5692 9.09659 56.2468 9.15341 55.8661 9.15341ZM56.0195 8.25C56.4173 8.25 56.7525 8.17188 57.0252 8.01562C57.3008 7.85938 57.5082 7.65767 57.6474 7.41051C57.7894 7.16335 57.8604 6.90341 57.8604 6.63068V5.71023C57.8178 5.76136 57.7241 5.80824 57.5792 5.85085C57.4371 5.89062 57.2724 5.92614 57.0849 5.95739C56.9002 5.9858 56.7198 6.01136 56.5437 6.03409C56.3704 6.05398 56.2298 6.07102 56.1218 6.08523C55.8604 6.11932 55.6161 6.17472 55.3888 6.25142C55.1644 6.32528 54.9826 6.4375 54.8434 6.58807C54.707 6.7358 54.6388 6.9375 54.6388 7.19318C54.6388 7.54261 54.7681 7.80682 55.0266 7.9858C55.288 8.16193 55.619 8.25 56.0195 8.25ZM63.3438 11.5909C62.858 11.5909 62.4403 11.5284 62.0909 11.4034C61.7415 11.2812 61.4503 11.1193 61.2173 10.9176C60.9872 10.7188 60.804 10.5057 60.6676 10.2784L61.4688 9.71591C61.5597 9.83523 61.6747 9.97159 61.8139 10.125C61.9531 10.2812 62.1435 10.4162 62.3849 10.5298C62.6293 10.6463 62.9489 10.7045 63.3438 10.7045C63.8722 10.7045 64.3082 10.5767 64.652 10.321C64.9957 10.0653 65.1676 9.66477 65.1676 9.11932V7.78977H65.0824C65.0085 7.90909 64.9034 8.05682 64.767 8.23295C64.6335 8.40625 64.4403 8.56108 64.1875 8.69744C63.9375 8.83097 63.5994 8.89773 63.1733 8.89773C62.6449 8.89773 62.1705 8.77273 61.75 8.52273C61.3324 8.27273 61.0014 7.90909 60.7571 7.43182C60.5156 6.95455 60.3949 6.375 60.3949 5.69318C60.3949 5.02273 60.5128 4.43892 60.7486 3.94176C60.9844 3.44176 61.3125 3.0554 61.733 2.78267C62.1534 2.5071 62.6392 2.36932 63.1903 2.36932C63.6165 2.36932 63.9545 2.44034 64.2045 2.58239C64.4574 2.72159 64.6506 2.88068 64.7841 3.05966C64.9205 3.2358 65.0256 3.38068 65.0994 3.49432H65.2017V2.45455H66.1733V9.1875C66.1733 9.75 66.0455 10.2074 65.7898 10.5597C65.5369 10.9148 65.196 11.1747 64.767 11.3395C64.3409 11.5071 63.8665 11.5909 63.3438 11.5909ZM63.3097 7.99432C63.7131 7.99432 64.054 7.90199 64.3324 7.71733C64.6108 7.53267 64.8224 7.26705 64.9673 6.92045C65.1122 6.57386 65.1847 6.15909 65.1847 5.67614C65.1847 5.20455 65.1136 4.78835 64.9716 4.42756C64.8295 4.06676 64.6193 3.78409 64.3409 3.57955C64.0625 3.375 63.7188 3.27273 63.3097 3.27273C62.8835 3.27273 62.5284 3.38068 62.2443 3.59659C61.9631 3.8125 61.7514 4.10227 61.6094 4.46591C61.4702 4.82955 61.4006 5.23295 61.4006 5.67614C61.4006 6.13068 61.4716 6.53267 61.6136 6.8821C61.7585 7.22869 61.9716 7.50142 62.2528 7.70028C62.5369 7.89631 62.8892 7.99432 63.3097 7.99432ZM70.7585 9.13636C70.1278 9.13636 69.5838 8.99716 69.1264 8.71875C68.6719 8.4375 68.321 8.04545 68.0739 7.54261C67.8295 7.03693 67.7074 6.44886 67.7074 5.77841C67.7074 5.10795 67.8295 4.51705 68.0739 4.00568C68.321 3.49148 68.6648 3.09091 69.1051 2.80398C69.5483 2.5142 70.0653 2.36932 70.6562 2.36932C70.9972 2.36932 71.3338 2.42614 71.6662 2.53977C71.9986 2.65341 72.3011 2.83807 72.5739 3.09375C72.8466 3.34659 73.0639 3.68182 73.2259 4.09943C73.3878 4.51705 73.4688 5.03125 73.4688 5.64205V6.06818H68.4233V5.19886H72.446C72.446 4.82955 72.3722 4.5 72.2244 4.21023C72.0795 3.92045 71.8722 3.69176 71.6023 3.52415C71.3352 3.35653 71.0199 3.27273 70.6562 3.27273C70.2557 3.27273 69.9091 3.37216 69.6165 3.57102C69.3267 3.76705 69.1037 4.02273 68.9474 4.33807C68.7912 4.65341 68.7131 4.99148 68.7131 5.35227V5.93182C68.7131 6.42614 68.7983 6.84517 68.9688 7.18892C69.142 7.52983 69.3821 7.78977 69.6889 7.96875C69.9957 8.14489 70.3523 8.23295 70.7585 8.23295C71.0227 8.23295 71.2614 8.19602 71.4744 8.12216C71.6903 8.04545 71.8764 7.93182 72.0327 7.78125C72.1889 7.62784 72.3097 7.4375 72.3949 7.21023L73.3665 7.48295C73.2642 7.8125 73.0923 8.10227 72.8509 8.35227C72.6094 8.59943 72.3111 8.79261 71.956 8.93182C71.6009 9.06818 71.2017 9.13636 70.7585 9.13636ZM76.0043 5.0625V9H74.9986V2.45455H75.9702V3.47727H76.0554C76.2088 3.14489 76.4418 2.87784 76.7543 2.67614C77.0668 2.47159 77.4702 2.36932 77.9645 2.36932C78.4077 2.36932 78.7955 2.46023 79.1278 2.64205C79.4602 2.82102 79.7188 3.09375 79.9034 3.46023C80.0881 3.82386 80.1804 4.28409 80.1804 4.84091V9H79.1747V4.90909C79.1747 4.39489 79.0412 3.99432 78.7741 3.70739C78.5071 3.41761 78.1406 3.27273 77.6747 3.27273C77.3537 3.27273 77.0668 3.34233 76.8139 3.48153C76.5639 3.62074 76.3665 3.82386 76.2216 4.09091C76.0767 4.35795 76.0043 4.68182 76.0043 5.0625ZM84.4897 9.13636C83.9442 9.13636 83.4627 8.99858 83.0451 8.72301C82.6275 8.4446 82.3008 8.05256 82.065 7.54688C81.8292 7.03835 81.7113 6.4375 81.7113 5.74432C81.7113 5.05682 81.8292 4.46023 82.065 3.95455C82.3008 3.44886 82.6289 3.05824 83.0494 2.78267C83.4698 2.5071 83.9556 2.36932 84.5067 2.36932C84.9329 2.36932 85.2695 2.44034 85.5167 2.58239C85.7667 2.72159 85.957 2.88068 86.0877 3.05966C86.2212 3.2358 86.3249 3.38068 86.3988 3.49432H86.484V0.272727H87.4897V9H86.5181V7.99432H86.3988C86.3249 8.11364 86.2198 8.2642 86.0835 8.44602C85.9471 8.625 85.7525 8.78551 85.4996 8.92756C85.2468 9.06676 84.9102 9.13636 84.4897 9.13636ZM84.6261 8.23295C85.0295 8.23295 85.3704 8.12784 85.6488 7.91761C85.9272 7.70455 86.1388 7.41051 86.2837 7.03551C86.4286 6.65767 86.5011 6.22159 86.5011 5.72727C86.5011 5.23864 86.43 4.81108 86.288 4.4446C86.146 4.07528 85.9357 3.78835 85.6573 3.58381C85.3789 3.37642 85.0352 3.27273 84.6261 3.27273C84.1999 3.27273 83.8448 3.3821 83.5607 3.60085C83.2795 3.81676 83.0678 4.1108 82.9258 4.48295C82.7866 4.85227 82.717 5.26705 82.717 5.72727C82.717 6.19318 82.788 6.61648 82.93 6.99716C83.0749 7.375 83.288 7.67614 83.5692 7.90057C83.8533 8.12216 84.2056 8.23295 84.6261 8.23295ZM91.3974 9.15341C90.9826 9.15341 90.6062 9.07528 90.2681 8.91903C89.93 8.75994 89.6616 8.53125 89.4627 8.23295C89.2638 7.93182 89.1644 7.56818 89.1644 7.14205C89.1644 6.76705 89.2383 6.46307 89.386 6.23011C89.5337 5.99432 89.7312 5.80966 89.9783 5.67614C90.2255 5.54261 90.4982 5.44318 90.7965 5.37784C91.0977 5.30966 91.4002 5.25568 91.7042 5.21591C92.1019 5.16477 92.4244 5.12642 92.6715 5.10085C92.9215 5.07244 93.1033 5.02557 93.217 4.96023C93.3335 4.89489 93.3917 4.78125 93.3917 4.61932V4.58523C93.3917 4.16477 93.2766 3.83807 93.0465 3.60511C92.8192 3.37216 92.4741 3.25568 92.011 3.25568C91.5309 3.25568 91.1545 3.3608 90.8817 3.57102C90.609 3.78125 90.4173 4.00568 90.3065 4.24432L89.3519 3.90341C89.5224 3.50568 89.7496 3.19602 90.0337 2.97443C90.3207 2.75 90.6332 2.59375 90.9712 2.50568C91.3121 2.41477 91.6474 2.36932 91.9769 2.36932C92.1871 2.36932 92.4286 2.39489 92.7013 2.44602C92.9769 2.49432 93.2425 2.59517 93.4982 2.74858C93.7567 2.90199 93.9712 3.13352 94.1417 3.44318C94.3121 3.75284 94.3974 4.16761 94.3974 4.6875V9H93.3917V8.11364H93.3406C93.2724 8.25568 93.1587 8.40767 92.9996 8.5696C92.8406 8.73153 92.6289 8.86932 92.3647 8.98295C92.1005 9.09659 91.7781 9.15341 91.3974 9.15341ZM91.5508 8.25C91.9485 8.25 92.2837 8.17188 92.5565 8.01562C92.832 7.85938 93.0394 7.65767 93.1786 7.41051C93.3207 7.16335 93.3917 6.90341 93.3917 6.63068V5.71023C93.3491 5.76136 93.2553 5.80824 93.1104 5.85085C92.9684 5.89062 92.8036 5.92614 92.6161 5.95739C92.4315 5.9858 92.2511 6.01136 92.0749 6.03409C91.9016 6.05398 91.761 6.07102 91.6531 6.08523C91.3917 6.11932 91.1474 6.17472 90.9201 6.25142C90.6957 6.32528 90.5138 6.4375 90.3746 6.58807C90.2383 6.7358 90.1701 6.9375 90.1701 7.19318C90.1701 7.54261 90.2994 7.80682 90.5579 7.9858C90.8192 8.16193 91.1502 8.25 91.5508 8.25ZM96.233 9V2.45455H97.2045V3.47727H97.2898C97.4261 3.12784 97.6463 2.85653 97.9503 2.66335C98.2543 2.46733 98.6193 2.36932 99.0455 2.36932C99.4773 2.36932 99.8366 2.46733 100.124 2.66335C100.413 2.85653 100.639 3.12784 100.801 3.47727H100.869C101.037 3.1392 101.288 2.87074 101.624 2.67188C101.959 2.47017 102.361 2.36932 102.83 2.36932C103.415 2.36932 103.893 2.55256 104.266 2.91903C104.638 3.28267 104.824 3.84943 104.824 4.61932V9H103.818V4.61932C103.818 4.13636 103.686 3.79119 103.422 3.58381C103.158 3.37642 102.847 3.27273 102.489 3.27273C102.028 3.27273 101.672 3.41193 101.419 3.69034C101.166 3.96591 101.04 4.31534 101.04 4.73864V9H100.017V4.51705C100.017 4.14489 99.8963 3.84517 99.6548 3.6179C99.4134 3.38778 99.1023 3.27273 98.7216 3.27273C98.4602 3.27273 98.2159 3.34233 97.9886 3.48153C97.7642 3.62074 97.5824 3.81392 97.4432 4.06108C97.3068 4.3054 97.2386 4.58807 97.2386 4.90909V9H96.233ZM109.407 9.13636C108.776 9.13636 108.232 8.99716 107.775 8.71875C107.32 8.4375 106.969 8.04545 106.722 7.54261C106.478 7.03693 106.356 6.44886 106.356 5.77841C106.356 5.10795 106.478 4.51705 106.722 4.00568C106.969 3.49148 107.313 3.09091 107.754 2.80398C108.197 2.5142 108.714 2.36932 109.305 2.36932C109.646 2.36932 109.982 2.42614 110.315 2.53977C110.647 2.65341 110.95 2.83807 111.222 3.09375C111.495 3.34659 111.712 3.68182 111.874 4.09943C112.036 4.51705 112.117 5.03125 112.117 5.64205V6.06818H107.072V5.19886H111.094C111.094 4.82955 111.021 4.5 110.873 4.21023C110.728 3.92045 110.521 3.69176 110.251 3.52415C109.984 3.35653 109.668 3.27273 109.305 3.27273C108.904 3.27273 108.558 3.37216 108.265 3.57102C107.975 3.76705 107.752 4.02273 107.596 4.33807C107.44 4.65341 107.362 4.99148 107.362 5.35227V5.93182C107.362 6.42614 107.447 6.84517 107.617 7.18892C107.79 7.52983 108.031 7.78977 108.337 7.96875C108.644 8.14489 109.001 8.23295 109.407 8.23295C109.671 8.23295 109.91 8.19602 110.123 8.12216C110.339 8.04545 110.525 7.93182 110.681 7.78125C110.837 7.62784 110.958 7.4375 111.043 7.21023L112.015 7.48295C111.913 7.8125 111.741 8.10227 111.499 8.35227C111.258 8.59943 110.96 8.79261 110.604 8.93182C110.249 9.06818 109.85 9.13636 109.407 9.13636ZM114.653 5.0625V9H113.647V2.45455H114.619V3.47727H114.704C114.857 3.14489 115.09 2.87784 115.403 2.67614C115.715 2.47159 116.119 2.36932 116.613 2.36932C117.056 2.36932 117.444 2.46023 117.776 2.64205C118.109 2.82102 118.367 3.09375 118.552 3.46023C118.737 3.82386 118.829 4.28409 118.829 4.84091V9H117.823V4.90909C117.823 4.39489 117.69 3.99432 117.423 3.70739C117.156 3.41761 116.789 3.27273 116.323 3.27273C116.002 3.27273 115.715 3.34233 115.462 3.48153C115.212 3.62074 115.015 3.82386 114.87 4.09091C114.725 4.35795 114.653 4.68182 114.653 5.0625ZM123.513 2.45455V3.30682H120.121V2.45455H123.513ZM121.11 0.886364H122.115V7.125C122.115 7.40909 122.157 7.62216 122.239 7.7642C122.324 7.90341 122.432 7.99716 122.563 8.04545C122.696 8.09091 122.837 8.11364 122.985 8.11364C123.096 8.11364 123.186 8.10795 123.257 8.09659C123.328 8.08239 123.385 8.07102 123.428 8.0625L123.632 8.96591C123.564 8.99148 123.469 9.01705 123.347 9.04261C123.225 9.07102 123.07 9.08523 122.882 9.08523C122.598 9.08523 122.32 9.02415 122.047 8.90199C121.777 8.77983 121.553 8.59375 121.374 8.34375C121.198 8.09375 121.11 7.77841 121.11 7.39773V0.886364ZM127.615 9.13636C127.024 9.13636 126.505 8.99574 126.059 8.71449C125.616 8.43324 125.27 8.03977 125.02 7.53409C124.772 7.02841 124.649 6.4375 124.649 5.76136C124.649 5.07955 124.772 4.48437 125.02 3.97585C125.27 3.46733 125.616 3.07244 126.059 2.79119C126.505 2.50994 127.024 2.36932 127.615 2.36932C128.206 2.36932 128.723 2.50994 129.166 2.79119C129.612 3.07244 129.958 3.46733 130.206 3.97585C130.456 4.48437 130.581 5.07955 130.581 5.76136C130.581 6.4375 130.456 7.02841 130.206 7.53409C129.958 8.03977 129.612 8.43324 129.166 8.71449C128.723 8.99574 128.206 9.13636 127.615 9.13636ZM127.615 8.23295C128.064 8.23295 128.433 8.1179 128.723 7.88778C129.012 7.65767 129.227 7.35511 129.366 6.98011C129.505 6.60511 129.575 6.19886 129.575 5.76136C129.575 5.32386 129.505 4.91619 129.366 4.53835C129.227 4.16051 129.012 3.85511 128.723 3.62216C128.433 3.3892 128.064 3.27273 127.615 3.27273C127.166 3.27273 126.797 3.3892 126.507 3.62216C126.217 3.85511 126.002 4.16051 125.863 4.53835C125.724 4.91619 125.654 5.32386 125.654 5.76136C125.654 6.19886 125.724 6.60511 125.863 6.98011C126.002 7.35511 126.217 7.65767 126.507 7.88778C126.797 8.1179 127.166 8.23295 127.615 8.23295Z" fill="#666666"/>
</svg>
